<svg version="1.1" id="Layer_1" xmlns="http://www.w3.org/2000/svg" xmlns:xlink="http://www.w3.org/1999/xlink" x="0px" y="0px"
	 width="100%" viewBox="0 0 460 460" enable-background="new 0 0 460 460" xml:space="preserve">
<path fill="#0ECE44" opacity="1.000000" stroke="none" 
	d="
M205.000000,0.999997 
	C222.020889,1.000000 239.041794,1.000000 256.236755,1.359600 
	C257.565521,2.174077 258.683563,2.795603 259.880432,3.058285 
	C273.146332,5.969872 286.549561,8.350186 299.671509,11.802253 
	C322.457642,17.796730 343.128845,28.705393 362.344513,42.013115 
	C379.971588,54.220634 395.561920,68.786179 409.307037,85.493118 
	C426.243378,106.078926 438.718964,129.051010 447.853577,153.793320 
	C453.176025,168.209793 457.734711,183.059677 459.078247,198.601349 
	C459.151611,199.449936 460.333893,200.202652 461.000000,201.000000 
	C461.000000,220.687561 461.000000,240.375122 460.641266,260.236572 
	C459.860626,261.233215 459.165344,262.021606 459.057068,262.883728 
	C456.733154,281.388397 452.748260,299.577850 444.903870,316.481445 
	C437.548004,332.332428 429.904572,348.290710 420.252045,362.778992 
	C405.659973,384.681488 387.073425,403.313843 365.291473,418.279083 
	C355.510986,424.998749 344.729156,430.260590 334.403656,436.187347 
	C320.095184,444.400330 304.643433,449.749512 288.729126,453.638123 
	C279.088562,455.993805 269.172058,457.211548 259.403717,459.067596 
	C258.512268,459.236969 257.797058,460.333832 257.000000,461.000000 
	C239.979111,461.000000 222.958206,461.000000 205.763229,460.640381 
	C204.434830,459.825989 203.317093,459.204468 202.120590,458.941864 
	C188.858246,456.031525 175.457565,453.655609 162.340378,450.200836 
	C139.564117,444.202087 118.960335,433.217712 99.649345,420.049042 
	C77.117561,404.683960 58.078785,385.472351 42.464668,363.134674 
	C36.148895,354.099274 31.333557,344.015991 25.822254,334.417145 
	C17.605495,320.106293 12.254424,304.652557 8.363611,288.735626 
	C6.006623,279.093384 4.789030,269.174744 2.932492,259.404449 
	C2.763052,258.512726 1.666196,257.797302 0.999999,257.000000 
	C1.000000,239.979111 1.000000,222.958206 1.359610,205.763245 
	C2.174444,204.434875 2.796715,203.317230 3.059282,202.120682 
	C5.969609,188.857712 8.339344,175.454544 11.801296,162.338989 
	C17.811798,139.568298 28.773905,118.952881 41.952900,99.645477 
	C57.325909,77.123810 76.514549,58.067314 98.861710,42.465912 
	C107.901459,36.154915 117.981812,31.335865 127.580521,25.823765 
	C141.891479,17.605637 157.346054,12.255278 173.263229,8.363528 
	C182.905624,6.005964 192.824753,4.788952 202.595413,2.932469 
	C203.487137,2.763038 204.202652,1.666182 205.000000,0.999997 
M363.474854,60.024658 
	C355.838959,54.762978 348.544708,48.897030 340.504120,44.351215 
	C314.849854,29.847382 287.590729,19.923946 258.094696,16.476322 
	C222.988358,12.372939 188.717987,15.881989 155.663055,28.197941 
	C135.608047,35.670246 116.839645,45.871929 99.738655,59.067936 
	C77.316048,76.370377 58.613384,96.990036 44.441105,121.378563 
	C29.637665,146.853226 19.829891,174.249344 16.526968,203.762100 
	C12.352500,241.062408 16.435877,277.142548 30.673519,312.134369 
	C41.248055,338.123413 56.061779,361.209930 75.441452,381.280609 
	C92.209137,398.646179 111.430092,412.810974 133.085587,423.818939 
	C163.908859,439.487061 196.562881,447.202850 230.942307,447.243896 
	C259.422028,447.277924 287.012543,441.904083 313.464935,431.022461 
	C333.848511,422.637390 352.624756,411.666809 369.541809,397.496826 
	C392.053467,378.640717 410.126282,356.345856 423.707733,330.213196 
	C439.094971,300.605865 446.961853,269.118744 447.827423,236.000870 
	C448.413605,213.573471 445.442749,191.518188 438.505096,169.890579 
	C431.249634,147.272156 421.591339,125.972900 407.965271,106.612717 
	C395.643860,89.106255 381.164581,73.483337 363.474854,60.024658 
z"/>
<path fill="#000100" opacity="1.000000" stroke="none" 
	d="
M204.531342,0.999997 
	C204.202652,1.666182 203.487137,2.763038 202.595413,2.932469 
	C192.824753,4.788952 182.905624,6.005964 173.263229,8.363528 
	C157.346054,12.255278 141.891479,17.605637 127.580521,25.823765 
	C117.981812,31.335865 107.901459,36.154915 98.861710,42.465912 
	C76.514549,58.067314 57.325909,77.123810 41.952900,99.645477 
	C28.773905,118.952881 17.811798,139.568298 11.801296,162.338989 
	C8.339344,175.454544 5.969609,188.857712 3.059282,202.120682 
	C2.796715,203.317230 2.174444,204.434875 1.359610,205.294586 
	C1.000000,137.072968 1.000000,69.145927 1.000000,1.000000 
	C68.687401,1.000000 136.375046,1.000000 204.531342,0.999997 
z"/>
<path fill="#000100" opacity="1.000000" stroke="none" 
	d="
M0.999999,257.468658 
	C1.666196,257.797302 2.763052,258.512726 2.932492,259.404449 
	C4.789030,269.174744 6.006623,279.093384 8.363611,288.735626 
	C12.254424,304.652557 17.605495,320.106293 25.822254,334.417145 
	C31.333557,344.015991 36.148895,354.099274 42.464668,363.134674 
	C58.078785,385.472351 77.117561,404.683960 99.649345,420.049042 
	C118.960335,433.217712 139.564117,444.202087 162.340378,450.200836 
	C175.457565,453.655609 188.858246,456.031525 202.120590,458.941864 
	C203.317093,459.204468 204.434830,459.825989 205.294571,460.640381 
	C137.072983,461.000000 69.145950,461.000000 1.000000,461.000000 
	C1.000000,393.312592 1.000000,325.624969 0.999999,257.468658 
z"/>
<path fill="#000100" opacity="1.000000" stroke="none" 
	d="
M461.000000,200.531342 
	C460.333893,200.202652 459.151611,199.449936 459.078247,198.601349 
	C457.734711,183.059677 453.176025,168.209793 447.853577,153.793320 
	C438.718964,129.051010 426.243378,106.078926 409.307037,85.493118 
	C395.561920,68.786179 379.971588,54.220634 362.344513,42.013115 
	C343.128845,28.705393 322.457642,17.796730 299.671509,11.802253 
	C286.549561,8.350186 273.146332,5.969872 259.880432,3.058285 
	C258.683563,2.795603 257.565521,2.174077 256.705444,1.359600 
	C324.926300,1.000000 392.852600,1.000000 461.000000,1.000000 
	C461.000000,67.354065 461.000000,133.708374 461.000000,200.531342 
z"/>
<path fill="#000100" opacity="1.000000" stroke="none" 
	d="
M257.468658,461.000000 
	C257.797058,460.333832 258.512268,459.236969 259.403717,459.067596 
	C269.172058,457.211548 279.088562,455.993805 288.729126,453.638123 
	C304.643433,449.749512 320.095184,444.400330 334.403656,436.187347 
	C344.729156,430.260590 355.510986,424.998749 365.291473,418.279083 
	C387.073425,403.313843 405.659973,384.681488 420.252045,362.778992 
	C429.904572,348.290710 437.548004,332.332428 444.903870,316.481445 
	C452.748260,299.577850 456.733154,281.388397 459.057068,262.883728 
	C459.165344,262.021606 459.860626,261.233215 460.641266,260.705261 
	C461.000000,327.594421 461.000000,394.188812 461.000000,461.000000 
	C393.312592,461.000000 325.624969,461.000000 257.468658,461.000000 
z"/>
<path fill="#000200" opacity="1.000000" stroke="none" 
	d="
M363.736389,60.268070 
	C381.164581,73.483337 395.643860,89.106255 407.965271,106.612717 
	C421.591339,125.972900 431.249634,147.272156 438.505096,169.890579 
	C445.442749,191.518188 448.413605,213.573471 447.827423,236.000870 
	C446.961853,269.118744 439.094971,300.605865 423.707733,330.213196 
	C410.126282,356.345856 392.053467,378.640717 369.541809,397.496826 
	C352.624756,411.666809 333.848511,422.637390 313.464935,431.022461 
	C287.012543,441.904083 259.422028,447.277924 230.942307,447.243896 
	C196.562881,447.202850 163.908859,439.487061 133.085587,423.818939 
	C111.430092,412.810974 92.209137,398.646179 75.441452,381.280609 
	C56.061779,361.209930 41.248055,338.123413 30.673519,312.134369 
	C16.435877,277.142548 12.352500,241.062408 16.526968,203.762100 
	C19.829891,174.249344 29.637665,146.853226 44.441105,121.378563 
	C58.613384,96.990036 77.316048,76.370377 99.738655,59.067936 
	C116.839645,45.871929 135.608047,35.670246 155.663055,28.197941 
	C188.717987,15.881989 222.988358,12.372939 258.094696,16.476322 
	C287.590729,19.923946 314.849854,29.847382 340.504120,44.351215 
	C348.544708,48.897030 355.838959,54.762978 363.736389,60.268070 
M128.501450,213.607666 
	C125.002251,213.606766 121.475891,213.329849 118.010315,213.670746 
	C113.021751,214.161438 111.443146,212.409363 111.493217,207.270874 
	C111.746498,181.277313 111.607048,155.279968 111.610161,129.283936 
	C111.611115,121.276993 111.618118,121.263596 119.422073,121.261734 
	C148.250992,121.254875 177.080261,121.189377 205.908478,121.330620 
	C210.220825,121.351746 211.871216,120.061691 211.649933,115.612549 
	C211.327484,109.129585 211.272751,102.600899 211.663223,96.125435 
	C211.960037,91.203499 210.160339,89.988632 205.424438,90.008545 
	C164.931351,90.178741 124.436775,90.197456 83.944023,89.991432 
	C78.840202,89.965462 77.536560,91.407211 77.556808,96.444519 
	C77.747047,143.769852 77.669487,191.096252 77.669296,238.422348 
	C77.669289,240.361664 77.669296,242.300995 77.669296,244.449188 
	C79.919197,244.572098 81.397522,244.722992 82.875893,244.723450 
	C124.036263,244.736252 165.196838,244.676956 206.356720,244.819443 
	C210.597504,244.834106 211.667664,243.433121 211.645279,239.382095 
	C211.494171,212.053787 211.572266,184.724228 211.552460,157.395096 
	C211.551285,155.777542 211.344986,154.160156 211.253418,152.824112 
	C210.631851,152.500290 210.487793,152.359848 210.343002,152.359070 
	C189.526932,152.246078 168.710297,152.072769 147.896042,152.224136 
	C146.712936,152.232727 144.610443,154.857773 144.535950,156.345200 
	C144.178024,163.492966 144.503052,170.671799 144.313751,177.832397 
	C144.212173,181.674622 145.558929,183.216537 149.522568,183.104614 
	C157.181839,182.888351 164.855453,183.190842 172.515625,182.990936 
	C176.302277,182.892120 177.935013,183.996948 177.768753,188.066727 
	C177.490097,194.887619 177.505081,201.735291 177.763550,208.557770 
	C177.916580,212.597015 176.277969,213.697891 172.494156,213.659637 
	C158.164505,213.514694 143.832474,213.605453 128.501450,213.607666 
M310.500000,90.096542 
	C290.505249,90.097282 270.509003,90.231979 250.516876,90.002815 
	C245.633163,89.946831 244.234985,91.625839 244.285690,96.345497 
	C244.491608,115.505020 244.368958,134.668060 244.369431,153.829803 
	C244.370117,182.322479 244.409180,210.815277 244.327591,239.307709 
	C244.317368,242.879135 244.990265,244.817520 249.229965,244.805695 
	C290.885590,244.689514 332.541718,244.714188 374.197571,244.777740 
	C377.371796,244.782578 378.714569,243.742294 378.633484,240.452957 
	C378.477478,234.125244 378.602753,227.790756 378.599335,221.459076 
	C378.595093,213.603729 378.589813,213.598999 370.593506,213.597946 
	C341.934204,213.594193 313.274902,213.588364 284.615601,213.600311 
	C281.494720,213.601624 278.613129,213.802826 278.591309,209.182922 
	C278.460815,181.539642 278.211853,153.896698 277.904572,126.254738 
	C277.863434,122.551750 279.431274,121.085228 282.980835,121.271805 
	C284.642151,121.359123 286.312439,121.270584 287.978638,121.270470 
	C315.971436,121.268562 343.964417,121.224174 371.956909,121.317375 
	C375.875610,121.330421 378.269623,120.737686 378.017883,115.924698 
	C377.670227,109.277931 377.683502,102.587013 378.015259,95.938606 
	C378.248291,91.269547 376.510406,89.965851 371.983582,90.011032 
	C351.824097,90.212219 331.661499,90.097267 310.500000,90.096542 
M237.899185,355.516876 
	C237.926071,342.939575 237.926086,342.939606 249.711990,338.866730 
	C249.869476,338.812286 250.026093,338.755310 250.182770,338.698547 
	C264.082001,333.666321 267.396881,327.193359 268.740753,313.261078 
	C270.062775,299.555054 269.031677,285.626556 269.144012,271.796600 
	C269.178070,267.601685 267.083801,265.468048 263.164673,265.449097 
	C242.835403,265.350708 222.505417,265.397491 202.175690,265.399445 
	C198.479233,265.399780 196.737625,267.178223 196.806274,270.960968 
	C196.915085,276.957916 196.951447,282.961487 196.792435,288.956238 
	C196.676376,293.331268 198.894287,294.938110 202.901474,294.934509 
	C208.567154,294.929413 214.232849,294.957397 219.898544,294.962769 
	C225.832596,294.968384 231.766663,294.964020 237.552979,294.964020 
	C239.391922,308.203979 239.391861,308.203766 227.832642,311.759369 
	C227.195663,311.955292 226.560867,312.158356 225.925705,312.360077 
	C213.522842,316.299042 206.927750,324.706909 206.676300,337.777649 
	C206.474426,348.271423 206.509567,358.769867 206.451691,369.266296 
	C206.429337,373.322876 208.250443,375.420715 212.528030,375.341095 
	C219.024643,375.220154 225.525223,375.298981 232.024048,375.313721 
	C235.922577,375.322571 237.883835,373.431519 237.876999,369.507782 
	C237.869446,365.175262 237.889679,360.842651 237.899185,355.516876 
M125.235687,374.710266 
	C133.367584,374.890533 141.499329,375.183716 149.631470,375.196106 
	C152.936768,375.201141 154.145187,372.922607 154.121201,369.799713 
	C154.082886,364.804718 154.135574,359.809113 154.145554,354.813751 
	C154.169067,343.039825 154.064117,342.702118 165.251343,339.258636 
	C177.921234,335.358734 184.302429,326.911438 184.633621,314.007050 
	C185.000900,299.696350 184.829727,285.371460 184.856735,271.052673 
	C184.863495,267.474335 183.158264,265.402039 179.404144,265.401489 
	C159.089798,265.398529 138.775421,265.393341 118.461098,265.413422 
	C114.787170,265.417053 112.986603,267.277069 113.039474,271.013062 
	C113.103081,275.507874 113.036125,280.004425 113.037865,284.500244 
	C113.041870,294.853455 113.123405,294.926270 123.256554,294.946594 
	C132.248199,294.964600 141.240707,295.083008 150.230911,294.983643 
	C153.166031,294.951202 154.292328,295.863098 154.402527,298.950134 
	C154.749878,308.680359 154.873993,308.676727 145.367172,311.480743 
	C144.569077,311.716125 143.756790,311.905792 142.965118,312.160339 
	C131.714722,315.777710 123.897346,322.535278 123.432327,335.108643 
	C122.995705,346.914032 123.115341,358.741547 123.121506,370.559265 
	C123.122139,371.772949 124.020203,372.986176 125.235687,374.710266 
M290.897369,356.496582 
	C290.907288,360.826111 290.902679,365.155731 290.931458,369.485138 
	C290.956482,373.252075 292.522797,375.409363 296.644653,375.338013 
	C303.137085,375.225586 309.633118,375.274414 316.127167,375.322601 
	C320.338867,375.353851 322.160950,373.200043 322.142242,369.145538 
	C322.119995,364.316498 322.145874,359.487213 322.146484,354.658051 
	C322.148010,342.957703 322.146973,342.957672 333.343384,339.100311 
	C346.729553,334.488525 352.293610,327.527008 352.711121,313.359070 
	C353.122986,299.382843 352.812805,285.386230 352.900085,271.399078 
	C352.926331,267.190796 350.976471,265.357147 346.826752,265.365814 
	C327.010590,265.407288 307.194183,265.418091 287.378143,265.352631 
	C283.027740,265.338257 280.901276,267.072113 281.041595,271.600739 
	C281.201416,276.757935 281.059387,281.924072 281.077362,287.086212 
	C281.101196,293.916595 282.056000,294.895905 288.859924,294.934662 
	C298.684570,294.990631 308.510101,295.071594 318.333923,294.987640 
	C321.250092,294.962708 322.417053,295.875946 322.542389,298.958038 
	C322.934265,308.592712 323.054047,308.585846 313.820099,311.281860 
	C312.701569,311.608459 311.579620,311.931732 310.482605,312.322113 
	C296.504608,317.296143 291.778900,323.573334 291.076599,338.516357 
	C290.811005,344.167145 290.945343,349.836731 290.897369,356.496582 
z"/>
<path fill="#0ECC43" opacity="1.000000" stroke="none" 
	d="
M129.001404,213.607849 
	C143.832474,213.605453 158.164505,213.514694 172.494156,213.659637 
	C176.277969,213.697891 177.916580,212.597015 177.763550,208.557770 
	C177.505081,201.735291 177.490097,194.887619 177.768753,188.066727 
	C177.935013,183.996948 176.302277,182.892120 172.515625,182.990936 
	C164.855453,183.190842 157.181839,182.888351 149.522568,183.104614 
	C145.558929,183.216537 144.212173,181.674622 144.313751,177.832397 
	C144.503052,170.671799 144.178024,163.492966 144.535950,156.345200 
	C144.610443,154.857773 146.712936,152.232727 147.896042,152.224136 
	C168.710297,152.072769 189.526932,152.246078 210.343002,152.359070 
	C210.487793,152.359848 210.631851,152.500290 211.253418,152.824112 
	C211.344986,154.160156 211.551285,155.777542 211.552460,157.395096 
	C211.572266,184.724228 211.494171,212.053787 211.645279,239.382095 
	C211.667664,243.433121 210.597504,244.834106 206.356720,244.819443 
	C165.196838,244.676956 124.036263,244.736252 82.875893,244.723450 
	C81.397522,244.722992 79.919197,244.572098 77.669296,244.449188 
	C77.669296,242.300995 77.669289,240.361664 77.669296,238.422348 
	C77.669487,191.096252 77.747047,143.769852 77.556808,96.444519 
	C77.536560,91.407211 78.840202,89.965462 83.944023,89.991432 
	C124.436775,90.197456 164.931351,90.178741 205.424438,90.008545 
	C210.160339,89.988632 211.960037,91.203499 211.663223,96.125435 
	C211.272751,102.600899 211.327484,109.129585 211.649933,115.612549 
	C211.871216,120.061691 210.220825,121.351746 205.908478,121.330620 
	C177.080261,121.189377 148.250992,121.254875 119.422073,121.261734 
	C111.618118,121.263596 111.611115,121.276993 111.610161,129.283936 
	C111.607048,155.279968 111.746498,181.277313 111.493217,207.270874 
	C111.443146,212.409363 113.021751,214.161438 118.010315,213.670746 
	C121.475891,213.329849 125.002251,213.606766 129.001404,213.607849 
z"/>
<path fill="#0ECB43" opacity="1.000000" stroke="none" 
	d="
M311.000000,90.096558 
	C331.661499,90.097267 351.824097,90.212219 371.983582,90.011032 
	C376.510406,89.965851 378.248291,91.269547 378.015259,95.938606 
	C377.683502,102.587013 377.670227,109.277931 378.017883,115.924698 
	C378.269623,120.737686 375.875610,121.330421 371.956909,121.317375 
	C343.964417,121.224174 315.971436,121.268562 287.978638,121.270470 
	C286.312439,121.270584 284.642151,121.359123 282.980835,121.271805 
	C279.431274,121.085228 277.863434,122.551750 277.904572,126.254738 
	C278.211853,153.896698 278.460815,181.539642 278.591309,209.182922 
	C278.613129,213.802826 281.494720,213.601624 284.615601,213.600311 
	C313.274902,213.588364 341.934204,213.594193 370.593506,213.597946 
	C378.589813,213.598999 378.595093,213.603729 378.599335,221.459076 
	C378.602753,227.790756 378.477478,234.125244 378.633484,240.452957 
	C378.714569,243.742294 377.371796,244.782578 374.197571,244.777740 
	C332.541718,244.714188 290.885590,244.689514 249.229965,244.805695 
	C244.990265,244.817520 244.317368,242.879135 244.327591,239.307709 
	C244.409180,210.815277 244.370117,182.322479 244.369431,153.829803 
	C244.368958,134.668060 244.491608,115.505020 244.285690,96.345497 
	C244.234985,91.625839 245.633163,89.946831 250.516876,90.002815 
	C270.509003,90.231979 290.505249,90.097282 311.000000,90.096558 
z"/>
<path fill="#0ECC43" opacity="1.000000" stroke="none" 
	d="
M237.898499,356.013489 
	C237.889679,360.842651 237.869446,365.175262 237.876999,369.507782 
	C237.883835,373.431519 235.922577,375.322571 232.024048,375.313721 
	C225.525223,375.298981 219.024643,375.220154 212.528030,375.341095 
	C208.250443,375.420715 206.429337,373.322876 206.451691,369.266296 
	C206.509567,358.769867 206.474426,348.271423 206.676300,337.777649 
	C206.927750,324.706909 213.522842,316.299042 225.925705,312.360077 
	C226.560867,312.158356 227.195663,311.955292 227.832642,311.759369 
	C239.391861,308.203766 239.391922,308.203979 237.552979,294.964020 
	C231.766663,294.964020 225.832596,294.968384 219.898544,294.962769 
	C214.232849,294.957397 208.567154,294.929413 202.901474,294.934509 
	C198.894287,294.938110 196.676376,293.331268 196.792435,288.956238 
	C196.951447,282.961487 196.915085,276.957916 196.806274,270.960968 
	C196.737625,267.178223 198.479233,265.399780 202.175690,265.399445 
	C222.505417,265.397491 242.835403,265.350708 263.164673,265.449097 
	C267.083801,265.468048 269.178070,267.601685 269.144012,271.796600 
	C269.031677,285.626556 270.062775,299.555054 268.740753,313.261078 
	C267.396881,327.193359 264.082001,333.666321 250.182770,338.698547 
	C250.026093,338.755310 249.869476,338.812286 249.711990,338.866730 
	C237.926086,342.939606 237.926071,342.939575 237.898499,356.013489 
M252.724167,282.245789 
	C252.592316,293.137451 252.460449,304.029144 251.952667,315.435974 
	C250.335495,316.960663 248.956161,318.945312 247.058090,319.926788 
	C240.429199,323.354645 233.573639,326.342255 226.914429,329.714783 
	C225.252991,330.556213 223.277115,331.946106 222.688629,333.542175 
	C219.464066,342.287689 221.527939,351.246460 221.974457,360.157043 
	C222.823471,358.665283 222.996048,357.141113 223.009521,355.615570 
	C223.056473,350.299042 223.161346,344.979126 223.027008,339.666016 
	C222.909637,335.023956 225.042557,332.375580 229.287476,330.637268 
	C235.575180,328.062469 241.866516,325.363525 247.758148,322.016541 
	C250.310181,320.566772 251.870010,317.370453 254.012421,314.042297 
	C254.037857,303.943848 254.108246,293.845032 254.034866,283.747314 
	C254.025116,282.406281 253.284790,281.070618 252.117447,279.445007 
	C238.175385,279.445007 224.233307,279.445007 210.291245,279.445007 
	C210.291885,279.956604 210.292511,280.468170 210.293152,280.979767 
	C212.002075,280.979767 213.711136,280.965454 215.419907,280.982086 
	C227.860275,281.103058 240.300613,281.230286 252.724167,282.245789 
z"/>
<path fill="#0ECC43" opacity="1.000000" stroke="none" 
	d="
M124.868759,374.454956 
	C124.020203,372.986176 123.122139,371.772949 123.121506,370.559265 
	C123.115341,358.741547 122.995705,346.914032 123.432327,335.108643 
	C123.897346,322.535278 131.714722,315.777710 142.965118,312.160339 
	C143.756790,311.905792 144.569077,311.716125 145.367172,311.480743 
	C154.873993,308.676727 154.749878,308.680359 154.402527,298.950134 
	C154.292328,295.863098 153.166031,294.951202 150.230911,294.983643 
	C141.240707,295.083008 132.248199,294.964600 123.256554,294.946594 
	C113.123405,294.926270 113.041870,294.853455 113.037865,284.500244 
	C113.036125,280.004425 113.103081,275.507874 113.039474,271.013062 
	C112.986603,267.277069 114.787170,265.417053 118.461098,265.413422 
	C138.775421,265.393341 159.089798,265.398529 179.404144,265.401489 
	C183.158264,265.402039 184.863495,267.474335 184.856735,271.052673 
	C184.829727,285.371460 185.000900,299.696350 184.633621,314.007050 
	C184.302429,326.911438 177.921234,335.358734 165.251343,339.258636 
	C154.064117,342.702118 154.169067,343.039825 154.145554,354.813751 
	C154.135574,359.809113 154.082886,364.804718 154.121201,369.799713 
	C154.145187,372.922607 152.936768,375.201141 149.631470,375.196106 
	C141.499329,375.183716 133.367584,374.890533 124.868759,374.454956 
M168.251099,279.255371 
	C154.283997,279.255371 140.316895,279.255371 126.349792,279.255371 
	C126.352203,279.897308 126.354614,280.539276 126.357025,281.181213 
	C140.516388,281.181213 154.675751,281.181213 168.938858,282.090088 
	C168.983963,292.722961 169.029053,303.355835 168.865982,314.675354 
	C167.081192,316.472076 165.593094,318.828369 163.456360,319.961273 
	C156.859848,323.458679 149.902283,326.278900 143.333633,329.822998 
	C141.221359,330.962646 138.563400,333.439789 138.419861,335.465485 
	C137.853607,343.457550 138.187592,351.513336 138.187592,359.545502 
	C139.282318,353.450745 139.412384,347.348389 139.243790,341.254333 
	C139.091476,335.748260 141.222488,332.283295 146.577728,330.265656 
	C152.621643,327.988495 158.433548,325.064667 164.247360,322.219818 
	C167.570328,320.593811 170.843292,318.668823 170.208786,313.084351 
	C170.230927,303.389893 170.306320,293.694916 170.219727,284.001434 
	C170.206207,282.487823 169.454956,280.980774 168.251099,279.255371 
z"/>
<path fill="#0ECC43" opacity="1.000000" stroke="none" 
	d="
M290.897339,355.997162 
	C290.945343,349.836731 290.811005,344.167145 291.076599,338.516357 
	C291.778900,323.573334 296.504608,317.296143 310.482605,312.322113 
	C311.579620,311.931732 312.701569,311.608459 313.820099,311.281860 
	C323.054047,308.585846 322.934265,308.592712 322.542389,298.958038 
	C322.417053,295.875946 321.250092,294.962708 318.333923,294.987640 
	C308.510101,295.071594 298.684570,294.990631 288.859924,294.934662 
	C282.056000,294.895905 281.101196,293.916595 281.077362,287.086212 
	C281.059387,281.924072 281.201416,276.757935 281.041595,271.600739 
	C280.901276,267.072113 283.027740,265.338257 287.378143,265.352631 
	C307.194183,265.418091 327.010590,265.407288 346.826752,265.365814 
	C350.976471,265.357147 352.926331,267.190796 352.900085,271.399078 
	C352.812805,285.386230 353.122986,299.382843 352.711121,313.359070 
	C352.293610,327.527008 346.729553,334.488525 333.343384,339.100311 
	C322.146973,342.957672 322.148010,342.957703 322.146484,354.658051 
	C322.145874,359.487213 322.119995,364.316498 322.142242,369.145538 
	C322.160950,373.200043 320.338867,375.353851 316.127167,375.322601 
	C309.633118,375.274414 303.137085,375.225586 296.644653,375.338013 
	C292.522797,375.409363 290.956482,373.252075 290.931458,369.485138 
	C290.902679,365.155731 290.907288,360.826111 290.897339,355.997162 
M293.788391,279.590027 
	C293.894043,279.980774 293.999695,280.371490 295.023560,280.872040 
	C307.176636,280.894470 319.331848,281.052521 331.481628,280.862518 
	C335.494843,280.799744 337.127411,281.856842 336.958710,286.150574 
	C336.638641,294.296631 336.995483,302.468475 336.711548,310.617096 
	C336.616913,313.333160 335.423157,316.010895 334.060150,318.959869 
	C326.271667,322.623779 318.497833,326.319275 310.688110,329.937256 
	C307.149536,331.576569 306.146057,334.366852 306.007233,336.793335 
	C308.882996,334.647888 311.641479,332.065247 314.850800,330.304199 
	C321.643768,326.576721 328.672058,323.278046 336.227783,319.383148 
	C336.948181,317.261932 338.250641,315.151337 338.289612,313.017700 
	C338.471344,303.064240 338.217712,293.103546 338.311127,283.147278 
	C338.341553,279.901978 336.714661,279.270630 333.997253,279.290466 
	C320.722351,279.387482 307.446960,279.414673 293.788391,279.590027 
z"/>
<path fill="#044517" opacity="1.000000" stroke="none" 
	d="
M253.880539,314.967468 
	C251.870010,317.370453 250.310181,320.566772 247.758148,322.016541 
	C241.866516,325.363525 235.575180,328.062469 229.287476,330.637268 
	C225.042557,332.375580 222.909637,335.023956 223.027008,339.666016 
	C223.161346,344.979126 223.056473,350.299042 223.009521,355.615570 
	C222.996048,357.141113 222.823471,358.665283 221.974457,360.157043 
	C221.527939,351.246460 219.464066,342.287689 222.688629,333.542175 
	C223.277115,331.946106 225.252991,330.556213 226.914429,329.714783 
	C233.573639,326.342255 240.429199,323.354645 247.058090,319.926788 
	C248.956161,318.945312 250.335495,316.960663 252.529083,315.184723 
	C253.363861,314.944794 253.622208,314.956146 253.880539,314.967468 
z"/>
<path fill="#044517" opacity="1.000000" stroke="none" 
	d="
M252.740952,281.355530 
	C240.300613,281.230286 227.860275,281.103058 215.419907,280.982086 
	C213.711136,280.965454 212.002075,280.979767 210.293152,280.979767 
	C210.292511,280.468170 210.291885,279.956604 210.291245,279.445007 
	C224.233307,279.445007 238.175385,279.445007 252.465607,279.994873 
	C252.789490,280.815002 252.765228,281.085266 252.740952,281.355530 
z"/>
<path fill="#02260C" opacity="1.000000" stroke="none" 
	d="
M252.732559,281.800659 
	C252.765228,281.085266 252.789490,280.815002 252.848282,280.138611 
	C253.284790,281.070618 254.025116,282.406281 254.034866,283.747314 
	C254.108246,293.845032 254.037857,303.943848 253.946472,314.504883 
	C253.622208,314.956146 253.363861,314.944794 252.717041,314.927124 
	C252.460449,304.029144 252.592316,293.137451 252.732559,281.800659 
z"/>
<path fill="#044015" opacity="1.000000" stroke="none" 
	d="
M170.086685,314.017426 
	C170.843292,318.668823 167.570328,320.593811 164.247360,322.219818 
	C158.433548,325.064667 152.621643,327.988495 146.577728,330.265656 
	C141.222488,332.283295 139.091476,335.748260 139.243790,341.254333 
	C139.412384,347.348389 139.282318,353.450745 138.187592,359.545502 
	C138.187592,351.513336 137.853607,343.457550 138.419861,335.465485 
	C138.563400,333.439789 141.221359,330.962646 143.333633,329.822998 
	C149.902283,326.278900 156.859848,323.458679 163.456360,319.961273 
	C165.593094,318.828369 167.081192,316.472076 169.223114,314.342163 
	C169.749054,314.011780 169.917877,314.014587 170.086685,314.017426 
z"/>
<path fill="#066320" opacity="1.000000" stroke="none" 
	d="
M168.835114,281.181213 
	C154.675751,281.181213 140.516388,281.181213 126.357025,281.181213 
	C126.354614,280.539276 126.352203,279.897308 126.349792,279.255371 
	C140.316895,279.255371 154.283997,279.255371 168.590485,279.790100 
	C168.898270,280.610321 168.866684,280.895782 168.835114,281.181213 
z"/>
<path fill="#022E0F" opacity="1.000000" stroke="none" 
	d="
M168.886993,281.635651 
	C168.866684,280.895782 168.898270,280.610321 168.987335,279.897766 
	C169.454956,280.980774 170.206207,282.487823 170.219727,284.001434 
	C170.306320,293.694916 170.230927,303.389893 170.147736,313.550903 
	C169.917877,314.014587 169.749054,314.011780 169.327209,313.998840 
	C169.029053,303.355835 168.983963,292.722961 168.886993,281.635651 
z"/>
<path fill="#043C13" opacity="1.000000" stroke="none" 
	d="
M334.731842,318.706146 
	C335.423157,316.010895 336.616913,313.333160 336.711548,310.617096 
	C336.995483,302.468475 336.638641,294.296631 336.958710,286.150574 
	C337.127411,281.856842 335.494843,280.799744 331.481628,280.862518 
	C319.331848,281.052521 307.176636,280.894470 294.598999,280.602631 
	C294.217285,280.044189 294.216400,279.755310 294.171722,279.466553 
	C307.446960,279.414673 320.722351,279.387482 333.997253,279.290466 
	C336.714661,279.270630 338.341553,279.901978 338.311127,283.147278 
	C338.217712,293.103546 338.471344,303.064240 338.289612,313.017700 
	C338.250641,315.151337 336.948181,317.261932 335.698669,319.318298 
	C335.023682,319.070984 334.877747,318.888550 334.731842,318.706146 
z"/>
<path fill="#043C13" opacity="1.000000" stroke="none" 
	d="
M335.386719,319.528442 
	C328.672058,323.278046 321.643768,326.576721 314.850800,330.304199 
	C311.641479,332.065247 308.882996,334.647888 306.007233,336.793335 
	C306.146057,334.366852 307.149536,331.576569 310.688110,329.937256 
	C318.497833,326.319275 326.271667,322.623779 334.395996,318.833008 
	C334.877747,318.888550 335.023682,319.070984 335.386719,319.528442 
z"/>
<path fill="#066320" opacity="1.000000" stroke="none" 
	d="
M293.980042,279.528259 
	C294.216400,279.755310 294.217285,280.044189 294.139893,280.547729 
	C293.999695,280.371490 293.894043,279.980774 293.980042,279.528259 
z"/>
</svg>